<?xml version="1.0" standalone="no"?>
<!DOCTYPE svg PUBLIC "-//W3C//DTD SVG 20010904//EN"
 "http://www.w3.org/TR/2001/REC-SVG-20010904/DTD/svg10.dtd">
<svg version="1.0" xmlns="http://www.w3.org/2000/svg"
 width="900.000000pt" height="520.000000pt" viewBox="0 0 900.000000 520.000000"
 preserveAspectRatio="xMidYMid meet">

<g transform="translate(0.000000,520.000000) scale(0.100000,-0.100000)"
fill="#000000" stroke="none">
<path d="M3610 4419 c-748 -46 -1391 -565 -1599 -1289 -154 -538 -45 -1119
293 -1565 282 -373 678 -608 1161 -692 91 -15 243 -17 1731 -20 l1631 -4 116
188 116 188 -1116 3 -1116 2 112 107 c127 121 204 211 283 333 136 209 223
434 269 700 18 100 18 420 0 530 -63 400 -242 746 -527 1020 -371 357 -842
530 -1354 499z m330 -133 c369 -50 695 -210 955 -471 256 -256 410 -557 472
-920 20 -118 20 -390 0 -510 -66 -394 -250 -729 -541 -987 -305 -270 -694
-418 -1099 -418 -817 0 -1509 592 -1643 1406 -21 131 -21 377 0 508 108 659
580 1181 1220 1351 199 53 431 68 636 41z m925 -3116 c-26 -27 -35 -30 -92
-30 l-64 0 23 30 c21 28 26 30 92 30 l70 0 -29 -30z m315 23 c0 -4 -10 -17
-22 -30 -18 -19 -32 -23 -85 -23 l-64 0 21 30 c20 28 26 30 86 30 35 0 64 -3
64 -7z m298 -23 c-21 -28 -26 -30 -92 -30 l-70 0 29 30 c26 27 35 30 92 30
l64 0 -23 -30z m300 0 c-20 -28 -26 -30 -91 -30 l-69 0 24 29 c21 28 28 30 91
30 l68 1 -23 -30z m287 0 c-26 -27 -35 -30 -92 -30 l-64 0 23 30 c21 28 26 30
92 30 l70 0 -29 -30z m273 1 c-21 -28 -28 -30 -91 -30 l-69 -1 24 29 c21 28
28 30 91 30 l69 1 -24 -29z m300 0 c-21 -28 -28 -30 -91 -30 l-69 -1 24 29
c21 28 28 30 91 30 l69 1 -24 -29z m300 0 c-21 -28 -28 -30 -91 -30 l-68 -1
23 30 c20 28 26 30 91 30 l69 0 -24 -29z m-1284 -78 c-9 -16 -28 -45 -42 -65
l-25 -38 -383 0 c-217 0 -384 4 -384 9 0 5 16 34 36 65 l37 56 390 0 389 0
-18 -27z m1090 0 c-9 -16 -28 -45 -42 -65 l-25 -38 -383 0 c-253 0 -384 3
-384 10 0 6 16 35 36 65 l37 55 390 0 389 0 -18 -27z m-2114 -140 c0 -5 -12
-20 -25 -35 -22 -26 -30 -28 -95 -28 l-71 0 28 35 c27 34 30 35 96 35 37 0 67
-3 67 -7z m320 0 c0 -4 -12 -20 -27 -35 -24 -25 -33 -28 -95 -28 l-69 0 27 35
c26 34 28 35 95 35 38 0 69 -3 69 -7z m314 -28 c-26 -34 -28 -35 -96 -35 -74
0 -76 2 -35 48 18 19 31 22 89 22 l69 0 -27 -35z m320 0 c-26 -34 -28 -35 -95
-35 -38 0 -69 3 -69 7 0 4 12 20 27 35 24 25 33 28 95 28 l69 0 -27 -35z m326
30 c0 -3 -10 -19 -22 -35 -21 -29 -25 -30 -95 -30 l-74 0 28 35 c27 34 30 35
96 35 37 0 67 -2 67 -5z m290 -2 c0 -5 -12 -20 -25 -35 -22 -26 -30 -28 -95
-28 l-71 0 28 35 c27 34 30 35 96 35 37 0 67 -3 67 -7z m320 0 c0 -5 -12 -20
-25 -35 -22 -26 -30 -28 -95 -28 l-71 0 28 35 c27 34 30 35 96 35 37 0 67 -3
67 -7z m320 0 c0 -5 -12 -20 -25 -35 -22 -26 -30 -28 -95 -28 l-71 0 27 35
c26 34 28 35 95 35 38 0 69 -3 69 -7z"/>
<path d="M3635 4049 c-101 -10 -278 -52 -312 -75 -22 -14 -28 -31 -23 -64 1
-8 45 -127 98 -264 77 -199 101 -251 120 -259 17 -8 41 -6 95 6 98 23 220 22
319 -3 70 -18 83 -19 102 -7 23 15 236 496 236 533 0 30 -27 51 -96 74 -149
52 -370 76 -539 59z"/>
<path d="M2756 3650 c-156 -151 -263 -321 -330 -520 -45 -135 -54 -200 -31
-223 20 -21 12 -19 292 -62 253 -38 295 -41 311 -22 5 6 19 43 31 81 31 101
75 176 152 261 39 43 69 84 69 96 0 21 -293 427 -332 462 -39 33 -64 22 -162
-73z"/>
<path d="M4455 3461 c-198 -247 -200 -253 -139 -312 77 -72 141 -188 178 -320
11 -40 22 -59 39 -66 18 -9 89 -3 296 21 328 39 321 35 301 143 -48 259 -188
516 -383 701 -92 87 -86 90 -292 -167z"/>
<path d="M3687 2950 c-239 -60 -324 -355 -151 -525 121 -119 318 -119 438 1
151 151 105 412 -88 500 -59 27 -145 37 -199 24z"/>
<path d="M2648 2500 c-125 -15 -238 -30 -252 -34 -44 -11 -50 -39 -31 -130 54
-251 179 -479 360 -655 86 -84 108 -94 143 -63 29 25 337 414 345 435 9 25 -6
51 -67 118 -62 67 -118 170 -141 259 -9 36 -24 73 -32 83 -21 22 -43 21 -325
-13z"/>
<path d="M4504 2465 c-13 -8 -28 -39 -39 -77 -31 -111 -75 -186 -172 -290 -29
-31 -53 -65 -53 -75 0 -24 321 -457 350 -473 34 -18 57 -3 160 99 158 158 273
351 334 565 33 112 33 151 4 170 -17 11 -511 96 -557 96 -4 0 -16 -7 -27 -15z"/>
<path d="M3448 1894 c-9 -9 -64 -129 -124 -266 -131 -305 -131 -289 7 -335
252 -85 590 -83 812 5 69 27 68 36 -34 300 -107 278 -113 291 -141 301 -12 4
-56 0 -107 -11 -97 -21 -220 -18 -305 7 -63 19 -88 19 -108 -1z"/>
</g>
</svg>
